#N canvas 407 251 450 300 10;
#X obj 311 75 vsl 15 128 0 1 0 0 rightvolume empty empty 0 -9 0 10
-262144 -1 -1 500 1;
#X obj 120 74 vsl 15 128 0 1 0 0 leftvolume empty empty 0 -9 0 10 -262144
-1 -1 2800 1;
#N canvas 964 324 566 527 spatialtest 1;
#X obj 51 391 dac~;
#X obj 82 15 adc~;
#X obj 25 152 *~;
#X obj 224 155 *~;
#X obj 75 118 r leftvolume;
#X obj 269 121 r rightvolume;
#X floatatom 269 157 5 0 0 0 - - -;
#X floatatom 76 155 5 0 0 0 - - -;
#X obj 153 15 r frontvolume;
#X floatatom 223 51 5 0 0 0 - - -;
#X obj 25 122 *~;
#X obj 224 123 *~;
#X obj 43 186 delwrite~ delayLeft 1000;
#X obj 17 271 delread~ delayLeft;
#X obj 202 271 delread~ delayRight;
#X floatatom 12 303 5 0 0 0 - - -;
#X obj -20 332 *~ 0.1;
#X floatatom 202 241 5 0 500 0 - - -;
#X floatatom 17 242 5 0 500 0 - - -;
#X floatatom 190 306 5 0 1 0 - - -;
#X floatatom 262 307 5 0 1 0 - - -;
#X obj 158 335 *~ 0.1;
#X obj 252 185 delwrite~ delayRight 2000;
#X obj 89 217 r delaytime;
#X floatatom 84 304 5 0 0 0 - - -;
#X obj 153 374 r reverb;
#X obj 51 332 *~ 0.1;
#X obj 229 335 *~ 0.1;
#X connect 1 0 10 0;
#X connect 1 1 11 0;
#X connect 2 0 12 0;
#X connect 2 0 16 0;
#X connect 3 0 21 0;
#X connect 3 0 22 0;
#X connect 4 0 2 1;
#X connect 4 0 7 0;
#X connect 5 0 3 1;
#X connect 5 0 6 0;
#X connect 8 0 9 0;
#X connect 8 0 10 1;
#X connect 8 0 11 1;
#X connect 10 0 2 0;
#X connect 11 0 3 0;
#X connect 13 0 16 0;
#X connect 13 0 26 0;
#X connect 14 0 21 0;
#X connect 14 0 27 0;
#X connect 15 0 16 1;
#X connect 16 0 0 0;
#X connect 17 0 14 0;
#X connect 18 0 13 0;
#X connect 19 0 21 1;
#X connect 20 0 27 1;
#X connect 21 0 0 1;
#X connect 23 0 18 0;
#X connect 23 0 17 0;
#X connect 24 0 26 1;
#X connect 25 0 15 0;
#X connect 25 0 24 0;
#X connect 25 0 19 0;
#X connect 25 0 20 0;
#X connect 26 0 12 0;
#X connect 27 0 22 0;
#X restore 139 18 pd spatialtest;
#X obj 214 77 vsl 15 128 0 1 0 0 frontvolume empty empty 0 -9 0 10
-262144 -1 -1 700 1;
#X obj 107 236 hsl 128 15 0 400 0 0 delaytime empty empty -2 -8 0 10
-262144 -1 -1 8600 1;
#X text 115 50 Left;
#X text 208 52 Front;
#X text 304 52 Right;
#X text 52 235 Delay;
#X obj 348 234 tgl 15 0 reverb empty empty 17 7 0 10 -262144 -1 -1
0 1;
#X text 288 233 Reverb;
